<svg width="20" height="20" viewBox="0 0 20 20" fill="none" xmlns="http://www.w3.org/2000/svg">
<g id="Twitter / Negative" clip-path="url(#clip0_304_4509)">
<path id="Vector" d="M6.2918 18.1202C13.8371 18.1202 17.9652 11.8675 17.9652 6.44679C17.9652 6.27101 17.9613 6.09132 17.9535 5.91554C18.7566 5.33479 19.4496 4.61545 20 3.79132C19.2521 4.12407 18.458 4.34139 17.6449 4.43585C18.5011 3.92266 19.1421 3.11647 19.4492 2.16671C18.6438 2.64404 17.763 2.98075 16.8445 3.16241C16.2257 2.50487 15.4075 2.0695 14.5164 1.92362C13.6253 1.77773 12.711 1.92945 11.9148 2.35532C11.1186 2.78119 10.4848 3.45749 10.1115 4.27967C9.73825 5.10184 9.64619 6.02409 9.84961 6.90382C8.21874 6.82198 6.62328 6.39833 5.16665 5.66032C3.71002 4.92232 2.42474 3.88644 1.39414 2.61984C0.870333 3.52294 0.710047 4.59161 0.945859 5.60865C1.18167 6.62569 1.79589 7.51478 2.66367 8.09523C2.01219 8.07454 1.37498 7.89914 0.804688 7.58351V7.63429C0.804104 8.58203 1.13175 9.50073 1.73192 10.2342C2.3321 10.9677 3.16777 11.4707 4.09687 11.6577C3.49338 11.8228 2.85999 11.8469 2.2457 11.728C2.50788 12.5431 3.01798 13.256 3.70481 13.7672C4.39164 14.2784 5.22093 14.5624 6.07695 14.5796C4.62369 15.7212 2.82848 16.3403 0.980469 16.3374C0.652739 16.3369 0.325333 16.3168 0 16.2773C1.87738 17.4817 4.06128 18.1214 6.2918 18.1202Z" fill="#1D2130"/>
</g>
<defs>
<clipPath id="clip0_304_4509">
<rect width="20" height="20" fill="white" transform="translate(0 -0.00488281)"/>
</clipPath>
</defs>
</svg>
